<?xml version="1.0" encoding="UTF-8"?>
<svg width="815px" height="416px" viewBox="0 0 815 416" version="1.1" xmlns="http://www.w3.org/2000/svg" xmlns:xlink="http://www.w3.org/1999/xlink">
    <!-- Generator: Sketch 64 (93537) - https://sketch.com -->
    <title>Combined-Shape-Copy-6 Copy</title>
    <desc>Created with Sketch.</desc>
    <g id="Page-1" stroke="none" stroke-width="1" fill="none" fill-rule="evenodd">
        <path d="M176,156 L176,412 L84,412 L84,156 L176,156 Z M84,12 L84,88 L0,88 L0,12 L84,12 Z M319,412.501333 L319,334.291986 C333.36995,339.878088 347.739759,340.385882 362.109756,340.385882 C378.532602,340.385882 393.10766,332.426548 405.835366,323.330068 C418.563072,314.233586 424.926829,299.641523 424.926829,281.827582 C424.926829,264.01364 418.049865,250.274371 404.295732,240.60936 C404.003571,240.40406 403.709605,240.200939 403.413832,240 L514.788379,240 C518.929468,252.355893 521,265.824632 521,280.406264 C521,319.634837 505.501171,352.040563 474.503049,377.624414 C443.504927,403.208266 405.21974,416 359.646341,416 C345.53204,416 331.983265,414.83378 319,412.501333 Z M571,126.138543 L571,28.0228862 C574.901089,25.0116768 578.881972,22.2455418 582.954774,19.7467868 C606.864442,5.07767183 638.539179,0 675.527638,0 C712.516098,0 745.008235,10.8136084 773.005025,32.4411498 C801.001816,54.068691 815,83.5005123 815,120.737497 C815,141.048579 794.973255,183.08083 783.733668,201.699323 C780.684952,206.749553 773.53154,216.516445 762.273433,231 L648.751386,231 C671.659279,205.868564 697.25364,173.597425 705.567839,162.769943 C716.398715,148.665024 721.81407,135.030475 721.81407,121.865884 C721.81407,108.701294 717.11395,97.6996227 707.713568,88.8605406 C698.313186,80.0214586 686.256355,75.6019838 671.542714,75.6019838 C644.567704,75.6019838 596.953219,92.151495 572.839196,127.507823 L571,126.138543 Z M815,345 L815,412 L571,412 L571,346.03831 L571.721451,345 L815,345 Z M320.952607,151 L231,151 L231,12 L491,12 L491,91.6301553 L320.952607,91.6301553 L320.952607,151 Z" id="Combined-Shape-Copy-6-Copy" fill="#ffffff" fill-rule="nonzero"></path>
    </g>
</svg>