<svg enable-background="new 0 0 80.3 85.2" viewBox="0 0 80.3 85.2" xmlns="http://www.w3.org/2000/svg"><g fill="#ffffff"><path d="m37.2 75.5c0-5.4-4.4-9.7-9.7-9.7s-9.7 4.4-9.7 9.7 4.4 9.7 9.7 9.7c5.4 0 9.7-4.4 9.7-9.7zm-13.4 0c0-2.1 1.7-3.7 3.7-3.7s3.7 1.7 3.7 3.7c0 2.1-1.7 3.7-3.7 3.7-2.1 0-3.7-1.7-3.7-3.7z"/><path d="m72.6 75.5c0-5.4-4.4-9.7-9.7-9.7s-9.7 4.4-9.7 9.7c0 5.4 4.4 9.7 9.7 9.7s9.7-4.4 9.7-9.7zm-13.5 0c0-2.1 1.7-3.7 3.7-3.7 2.1 0 3.7 1.7 3.7 3.7 0 2.1-1.7 3.7-3.7 3.7s-3.7-1.7-3.7-3.7z"/><path d="m14.8 2-11.4-2c-1.7-.2-3.2 1-3.4 2.6-.2 1.5.8 3 2.3 3.3l9.3 1.6 8.6 52.7c.2 1.5 1.5 2.5 3 2.5h46.3c1.7 0 3-1.3 3-3s-1.3-3-3-3h-43.7l-1.3-7.7h44.8c1.3 0 2.5-.8 2.9-2.1l8-25c.5-1.6-.4-3.3-1.9-3.8-.3-.1-.6-.1-.9-.1h-57.9l-2.2-13.5c-.3-1.3-1.2-2.3-2.5-2.5zm58.4 22.1-6.1 19h-43.5l-3.1-19z"/></g></svg>