<svg fill="#ffffff" xmlns="http://www.w3.org/2000/svg" viewBox="0 0 24 24" width="24px" height="24px"><path fill="none" stroke="#ffffff" stroke-linejoin="round" stroke-miterlimit="10" stroke-width="2" d="M3,6c1.8,0,2.7-2,4.5-2	s2.7,2,4.5,2s2.7-2,4.5-2s2.7,2,4.5,2"/><path fill="none" stroke="#ffffff" stroke-linejoin="round" stroke-miterlimit="10" stroke-width="2" d="M3,13c1.8,0,2.7-2,4.5-2	s2.7,2,4.5,2s2.7-2,4.5-2s2.7,2,4.5,2"/><path fill="none" stroke="#ffffff" stroke-linejoin="round" stroke-miterlimit="10" stroke-width="2" d="M3,20c1.8,0,2.7-2,4.5-2	s2.7,2,4.5,2s2.7-2,4.5-2s2.7,2,4.5,2"/></svg>